<svg xmlns="http://www.w3.org/2000/svg" viewBox="0 0 512 512" style="height: 512px; width: 512px;"><defs><filter id="shadow-14" height="300%" width="300%" x="-100%" y="-100%"><feFlood flood-color="rgba(126, 211, 33, 1)" result="flood"></feFlood><feComposite in="flood" in2="SourceGraphic" operator="atop" result="composite"></feComposite><feGaussianBlur in="composite" stdDeviation="25" result="blur"></feGaussianBlur><feOffset dx="0" dy="0" result="offset"></feOffset><feComposite in="SourceGraphic" in2="offset" operator="over"></feComposite></filter><filter id="shadow-15" height="300%" width="300%" x="-100%" y="-100%"><feFlood flood-color="rgba(126, 211, 33, 1)" result="flood"></feFlood><feComposite in="flood" in2="SourceGraphic" operator="atop" result="composite"></feComposite><feGaussianBlur in="composite" stdDeviation="25" result="blur"></feGaussianBlur><feOffset dx="0" dy="0" result="offset"></feOffset><feComposite in="SourceGraphic" in2="offset" operator="over"></feComposite></filter><filter id="shadow-16" height="300%" width="300%" x="-100%" y="-100%"><feFlood flood-color="rgba(126, 211, 33, 1)" result="flood"></feFlood><feComposite in="flood" in2="SourceGraphic" operator="atop" result="composite"></feComposite><feGaussianBlur in="composite" stdDeviation="25" result="blur"></feGaussianBlur><feOffset dx="0" dy="0" result="offset"></feOffset><feComposite in="SourceGraphic" in2="offset" operator="over"></feComposite></filter></defs><path d="M0 0h512v512H0z" fill="#000" fill-opacity="1"></path><g class="" transform="translate(0,0)" style=""><g><path d="M255.844 19.156C245.872 19.23 235.899 21.636 226.438 26L226.438 40.156L285.218 40.156L285.218 25.938C275.818 21.414 265.87 19.083 255.844 19.156Z" class="" fill="#417505" fill-opacity="1"></path><path d="M65.03 33.376C48.885 33.39 33.452 38.966 20.937 49.719L24.625 63.469L81.405 48.249L77.75 34.593C73.488 33.858 69.245 33.37 65.03 33.373Z" class="" fill="#417505" fill-opacity="1"></path><path d="M446.75 33.376C442.54 33.371 438.29 33.86 434.03 34.594L430.375 48.25L487.155 63.47L490.845 49.72C478.325 38.955 462.905 33.39 446.75 33.375Z" class="" fill="#417505" fill-opacity="1"></path><path d="M240.72 57.187L240.72 156.343C240.23 157.491 239.76 158.655 239.28 159.813L271.53 159.813C271.32 159.303 271.12 158.789 270.906 158.28L270.906 57.188L240.72 57.188Z" class="" fill="#b57204" fill-opacity="1"></path><path d="M71.97 68.406L42.812 76.22L69 173.905C68.928 174.437 68.882 174.967 68.812 175.499L99.938 167.124C99.183 166.141 98.422 165.161 97.656 164.186L71.97 68.407Z" class="" fill="#b57204" fill-opacity="1"></path><path d="M439.78 68.406L414.125 164.186C413.355 165.169 412.605 166.164 411.845 167.156L442.937 175.469C442.87 174.957 442.819 174.449 442.75 173.937L468.938 76.217L439.781 68.405Z" class="" fill="#b57204" fill-opacity="1"></path><path d="M229.5 178.5C222.328 191.866 207.51 200.773 190.125 204.125L190.125 214.969C203.081 213.081 216.115 211.777 229.188 211.062C233.331 200.394 243.756 192.749 255.813 192.749C267.927 192.749 278.398 200.469 282.5 211.219C295.52 211.991 308.53 213.286 321.53 215.062L321.53 204.124C304.133 200.776 289.302 191.872 282.125 178.499L229.5 178.499Z" class="" fill="#9b9b9b" fill-opacity="1"></path><path d="M114.187 182.688L63.407 196.281C59.947 211.069 47.947 223.539 32 231.281L34.813 241.813C46.913 236.733 59.151 232.123 71.531 228.001C72.714 216.561 80.807 206.385 92.501 203.251C94.35 202.756 96.246 202.453 98.157 202.345C107.893 201.782 117.244 206.335 122.907 214.065C135.677 211.38 148.597 209.225 161.687 207.689L158.907 197.251C141.221 198.521 124.58 193.767 114.187 182.688Z" class="" fill="#9b9b9b" fill-opacity="1"></path><path d="M397.562 182.688C387.177 193.76 370.549 198.513 352.875 197.25L350.062 207.688C363.157 209.225 376.069 211.378 388.844 214.063C394.507 206.335 403.858 201.781 413.594 202.343C415.479 202.453 417.394 202.743 419.281 203.25C430.977 206.384 439.071 216.56 440.251 228C452.662 232.136 464.911 236.743 476.971 241.813L479.781 231.281C463.837 223.539 451.835 211.069 448.376 196.281L397.563 182.688Z" class="" fill="#9b9b9b" fill-opacity="1"></path><path d="M255.812 211.438C250.274 211.438 246 215.713 246 221.25C246 226.787 250.273 231.094 255.813 231.094C261.353 231.094 265.656 226.787 265.656 221.25C265.656 215.71 261.352 211.437 255.812 211.437Z" class="" fill="#fff" fill-opacity="1"></path><path d="M100.312 220.938C99.989 220.931 99.666 220.941 99.344 220.968C98.684 221.015 98.012 221.133 97.344 221.313C91.994 222.746 88.941 227.993 90.374 233.343C91.808 238.693 97.056 241.715 102.406 240.281C107.756 238.849 110.808 233.599 109.376 228.251C108.3 224.241 105.083 221.531 101.281 221.031C100.965 220.991 100.636 220.951 100.313 220.938Z" class="" fill="#fff" fill-opacity="1"></path><path d="M411.469 220.968C411.144 220.978 410.816 220.99 410.499 221.031C406.697 221.531 403.479 224.241 402.405 228.251C400.972 233.599 403.992 238.849 409.343 240.281C414.693 241.716 419.941 238.693 421.373 233.345C422.808 227.995 419.787 222.747 414.436 221.315C413.469 221.055 412.469 220.939 411.468 220.97Z" class="" fill="#fff" fill-opacity="1"></path><path d="M228.561 229.718C225.141 229.92 221.728 230.154 218.311 230.438C201.101 319.42 213.534 418.055 255.655 493.063C297.731 407.447 310.825 317.253 293.218 230.656C289.8 230.366 286.381 230.126 282.968 229.906C280.218 238.402 273.558 245.229 265.154 248.186L265.154 410.25L246.47 410.25L246.47 248.187C238 245.207 231.27 238.307 228.563 229.719Z" class="selected" fill="#c9c9c9" fill-opacity="1" filter="url(#shadow-14)"></path><path d="M138.499 229.968C135.099 230.583 131.721 231.248 128.343 231.938C127.953 240.928 123.273 249.304 115.873 254.375L157.813 410.938L139.78 415.781L97.812 259.221C88.919 258.539 80.718 253.675 75.875 246.157C72.622 247.245 69.382 248.37 66.155 249.532C71.555 337.736 107.568 421.469 170.375 493.282C191.645 409.932 178.147 311.455 138.5 229.972Z" class="" fill="#c9c9c9" fill-opacity="1" filter="url(#shadow-15)"></path><path d="M373.279 229.968C333.622 311.454 320.102 409.928 341.374 493.281C404.184 421.466 440.164 337.737 445.562 249.531C442.342 248.371 439.112 247.245 435.874 246.157C431.028 253.66 422.854 258.533 413.968 259.22L372 415.78L353.937 410.938L395.907 254.375C388.495 249.305 383.797 240.937 383.407 231.937C380.039 231.243 376.664 230.587 373.281 229.969Z" class="" fill="#c9c9c9" fill-opacity="1" filter="url(#shadow-16)"></path></g></g></svg>