<svg xmlns="http://www.w3.org/2000/svg" viewBox="0 0 512 512" style="height: 512px; width: 512px;"><defs><linearGradient x1="0" x2="1" y1="1" y2="0" id="lorc-crystal-wand-gradient-6"><stop offset="0%" stop-color="#fcd000" stop-opacity="1"></stop><stop offset="100%" stop-color="#d0021b" stop-opacity="1"></stop></linearGradient></defs><path d="M0 0h512v512H0z" fill="#000" fill-opacity="1"></path><g class="" transform="translate(0,0)" style=""><g><path d="M377.154 21.04L381.214 71.207L435.534 74.063L438.211 128.369L488.384 132.267L480.39 29.387L377.154 21.037Z" class="" fill="#d0021b" fill-opacity="1"></path><path d="M359.31 32.267L245.954 145.623L290.04 149.189L362.877 76.347L359.311 32.267Z" class="" fill="#d0021b" fill-opacity="1"></path><path d="M376.006 89.647L303.026 162.63L305.216 204.322L346.742 206.372L419.746 133.362L417.7 91.84L376.006 89.648Z" class="" fill="#d0021b" fill-opacity="1"></path><path d="M432.842 146.697L360.385 219.157L363.818 263.37L477.058 150.133L432.842 146.697Z" class="" fill="#d0021b" fill-opacity="1"></path><path d="M236.629 163.617L244.112 256.142L200.878 212.907C200.032 220.68 198.528 227.794 196.378 234.263L274.858 312.745C281.301 310.569 288.378 309.025 296.102 308.132L253.602 265.632L345.805 272.796L342.082 224.853L287.434 222.157L284.566 167.495L236.626 163.618Z" class="selected" fill="url(#lorc-crystal-wand-gradient-6)"></path><path d="M187.774 252.089C182.874 259.409 176.704 265.459 169.3 270.276L238.885 339.86C243.721 332.478 249.777 326.313 257.085 321.402L187.775 252.09Z" class="" fill="#fcd000" fill-opacity="1"></path><path d="M151.382 278.789C144.972 280.929 137.975 282.479 130.399 283.449L159.649 312.699L159.989 312.359L173.204 325.575L172.864 325.915L225.561 378.612C226.568 371.07 228.146 364.102 230.311 357.718L151.381 278.788Z" class="" fill="#fcd000" fill-opacity="1"></path><path d="M135.53 315.01L17.09 433.094L17.09 455.264L146.438 325.916L135.533 315.012Z" class="" fill="#8b572a" fill-opacity="1"></path><path d="M159.65 339.13L17.088 481.69L17.088 495L70.818 495L193.168 372.65L159.65 339.133Z" class="" fill="#5a3b1e" fill-opacity="1"></path></g></g></svg>