<svg xmlns="http://www.w3.org/2000/svg" viewBox="0 0 512 512" style="height: 512px; width: 512px;"><path d="M0 0h512v512H0z" fill="#000" fill-opacity="1"></path><g class="" transform="translate(0,0)" style=""><g><path d="M257.375 32.03C139.957 87.197 42.343 247.886 17.5 367.75C89.242 367.75 141.72 390.595 179.594 430.78L190.064 419.344C162.004 390.471 125.129 366.898 76.5 343.438C102.642 278.405 142.528 179.98 193.22 174.25C213.055 172.007 234.27 183.985 257.375 217.688C329.705 97.418 398.389 256.228 438.25 343.438C390.563 369.292 353.75 392.901 325.28 422.156L334.53 432.562C371.865 392.804 424.187 367.75 497.25 367.75C467.784 249.384 377.24 90.37 257.375 32.03Z" class="" fill="#4a90e2" fill-opacity="1"></path><path d="M177.655 275.344C162.355 275.261 151.25 281.78 151.25 292C151.25 304.58 168.084 318.038 188.844 322.063C209.604 326.087 226.438 319.143 226.438 306.563C226.438 293.983 209.603 280.525 188.844 276.5C184.951 275.745 181.187 275.363 177.656 275.344Z" class="" fill="#ffffff" fill-opacity="1"></path><path d="M334 275.344C330.47 275.364 326.705 275.744 322.812 276.5C302.052 280.525 285.219 293.983 285.219 306.563C285.219 319.143 302.052 326.087 322.811 322.063C343.571 318.038 360.405 304.579 360.405 292C360.405 281.78 349.3 275.26 333.999 275.344Z" class="selected" fill="#ffffff" fill-opacity="1"></path></g></g></svg>