<svg xmlns="http://www.w3.org/2000/svg" viewBox="0 0 512 512" style="height: 512px; width: 512px;"><path d="M0 0h512v512H0z" fill="#000" fill-opacity="1"></path><g class="" transform="translate(0,0)" style=""><g><path d="M43.53 15.75C27.8 15.75 15.22 28.333 15.22 44.063C15.22 58.149 25.312 69.707 38.72 71.969L42.687 68L68.81 41.906L71.436 39.281C69.188 25.86 57.63 15.75 43.53 15.75Z" class="selected" fill="#f8f19b" fill-opacity="1"></path><path d="M77.25 59.875L60.25 76.875C76.135 116.245 103.7 143.559 139 164.281C147.188 155.677 155.672 147.36 164.438 139.345C141.95 104.242 112.903 77.051 77.25 59.875Z" class="" fill="#b57204" fill-opacity="1"></path><path d="M322.594 79.03L271.344 83.344C191.988 131.478 127.466 191.444 84.624 269.874L80.314 321.344L124.469 302.688L121.529 268.594L121.279 265.531L122.905 262.907C158.845 204.437 202.835 153.497 264.405 121.657L266.811 120.407L269.499 120.657L303.624 123.563L322.594 79.033Z" class="" fill="#9b9b9b" fill-opacity="1"></path><path d="M260.156 145.406C250.148 151.292 240.656 157.744 231.594 164.719C278.282 212.649 318.802 273.307 346.314 331.219L357.562 354.936L333.844 343.656C275.849 316.102 215.926 276.086 168.156 229.749C160.931 239.258 154.052 249.024 147.531 259.029C249.449 353.939 374.581 436.333 495.376 493.719C438.313 373.594 355.338 247.539 260.156 145.405Z" class="" fill="#c9c9c9" fill-opacity="1"></path><path d="M217.126 176.626C203.756 188.329 191.406 201.206 179.844 215.062C219.204 253.514 267.929 287.892 316.531 313.906C290.477 265.273 255.777 216.059 217.126 176.626Z" class="" fill="#e4e4e4" fill-opacity="1"></path></g></g></svg>