<svg xmlns="http://www.w3.org/2000/svg" viewBox="0 0 512 512" style="height: 512px; width: 512px;"><path d="M0 0h512v512H0z" fill="#000" fill-opacity="1"></path><g class="" transform="translate(0,0)" style=""><g><path d="M339.72 55.875C277.928 55.875 227.844 105.955 227.844 167.75C227.844 229.54 277.924 279.625 339.719 279.625C401.509 279.625 451.624 229.545 451.624 167.75C451.624 105.96 401.512 55.875 339.718 55.875Z" class="" fill="#48baff" fill-opacity="1"></path><path d="M339.72 74.75C391.08 74.75 432.72 116.392 432.72 167.75C432.72 219.112 391.077 260.75 339.72 260.75C288.357 260.75 246.75 219.108 246.75 167.75C246.75 134.716 263.958 105.717 289.906 89.22C285.139 94.948 282.25 102.308 282.25 110.344C282.25 128.601 297.056 143.406 315.313 143.406C333.569 143.406 348.375 128.601 348.375 110.344C348.375 92.88 334.813 78.614 317.655 77.406C324.878 75.645 332.285 74.753 339.719 74.75Z" class="" fill="#4a90e2" fill-opacity="1"></path><path d="M277.187 139.78C268.769 139.78 261.907 146.605 261.907 155.03C261.907 163.45 268.761 170.28 277.187 170.28C285.607 170.28 292.437 163.458 292.437 155.03C292.437 146.612 285.614 139.78 277.187 139.78Z" class="" fill="#48baff" fill-opacity="1"></path><path d="M200.875 212.75C200.029 220.546 198.533 227.67 196.375 234.156L274.875 312.656C281.319 310.483 288.398 308.923 296.125 308.031L200.875 212.751Z" class="" fill="#c9c9c9" fill-opacity="1"></path><path d="M187.75 251.97C182.84 259.305 176.672 265.363 169.25 270.188L238.844 339.813C243.686 332.403 249.764 326.233 257.094 321.313L187.75 251.97Z" class="" fill="#9b9b9b" fill-opacity="1"></path><path d="M151.312 278.688C144.906 280.824 137.914 282.404 130.344 283.375C162.888 315.087 192.889 345.921 225.531 378.563C226.534 371.029 228.126 364.065 230.281 357.688L151.313 278.688Z" class="" fill="#c9c9c9" fill-opacity="1"></path><path d="M135.625 315.094L17.187 433.188L17.187 455.125L146.437 325.905L135.625 315.095Z" class="selected" fill="#965d2c" fill-opacity="1"></path><path d="M159.625 339.094L17.187 481.53L17.187 495.125L70.907 495.125L193.28 372.75L159.625 339.094Z" class="" fill="#8b572a" fill-opacity="1"></path></g></g></svg>