<svg xmlns="http://www.w3.org/2000/svg" viewBox="0 0 512 512" style="height: 512px; width: 512px;"><path d="M0 0h512v512H0z" fill="#000" fill-opacity="1"></path><g class="" transform="translate(0,0)" style=""><g><path d="M201.837 53.087L177.547 21L233.223 21Z" class="" fill="#7ed321" fill-opacity="1"></path><path d="M278.766 21L309.586 52.465L333.065 21L278.767 21Z" class="" fill="#7ed321" fill-opacity="1"></path><path d="M291.194 59.12L256 23.18L220.75 59.165L291.25 59.165Z" class="" fill="#7ed321" fill-opacity="1"></path><path d="M373.285 59.12L349.774 28.265L326.771 59.165L373.341 59.165Z" class="" fill="#7ed321" fill-opacity="1"></path><path d="M161.096 28.683L138.5 59.188L184.246 59.188Z" class="" fill="#7ed321" fill-opacity="1"></path><path d="M212.344 76.925L256 196.821L299.69 76.925L212.31 76.925Z" class="" fill="#7ed321" fill-opacity="1"></path><path d="M139.178 76.925L229.562 175.942L193.409 76.925L139.178 76.925Z" class="" fill="#7ed321" fill-opacity="1"></path><path d="M372.89 76.925L318.66 76.925L282.584 175.942Z" class="" fill="#7ed321" fill-opacity="1"></path><path d="M353.435 125.067L324.376 156.905C376.877 182.922 410.111 236.431 410.162 295.024C410.14 380.008 340.995 449.197 256 449.197C171.005 449.197 101.86 380.053 101.86 295.057C101.911 236.463 135.146 182.955 187.647 156.938L158.588 125.1C97.691 160.016 60.111 224.827 60.058 295.024C60.057 403.056 147.955 491 256 491C364.044 491 451.943 403.101 451.943 295.057C451.911 224.834 414.323 159.992 353.401 125.067Z" class="selected" fill="#9b9b9b" fill-opacity="1"></path></g></g></svg>