<svg xmlns="http://www.w3.org/2000/svg" viewBox="0 0 512 512" style="height: 512px; width: 512px;"><path d="M0 0h512v512H0z" fill="#000" fill-opacity="1"></path><g class="" transform="translate(0,0)" style=""><g><path d="M256 25C227.375 25 199.566 41.22 173.56 68.912C147.555 96.604 123.888 135.38 104.16 177.795C64.705 262.625 41 362.57 41 416C41 423 47.83 432.013 62.684 441.064C77.538 450.116 98.98 458.494 122.52 465.359C169.598 479.091 225.5 487 256 487C286.5 487 342.402 479.09 389.48 465.36C413.02 458.494 434.462 450.116 449.316 441.064C464.171 432.013 471 423 471 416C471 362.571 447.295 262.624 407.84 177.795C388.112 135.38 364.445 96.604 338.44 68.912C312.433 41.221 284.624 25 256 25Z" class="" fill="#cea261" fill-opacity="1"></path><path d="M178.846 167.46C178.846 167.46 227 183 256 183C285 183 333.154 167.46 333.154 167.46L338.846 184.54C338.846 184.54 291 201 256 201C221 201 173.154 184.54 173.154 184.54L178.846 167.46Z" class="" fill="#000000" fill-opacity="1"></path><path d="M133.4 184.8L196.72 232.291C228.18 248.012 243.108 255 256 255C268.892 255 283.821 248.012 315.28 232.291L378.6 184.801L389.4 199.199L343.525 233.605C338.305 255.916 330.595 274.331 321.803 287.895C315.994 296.856 309.773 304.195 302.725 308.578L315.398 340.262L308.113 344.004C308.113 344.004 300.003 348.177 289.699 352.344C279.395 356.51 267.28 361 256 361C244.721 361 232.605 356.51 222.3 352.344C211.997 348.177 203.887 344.004 203.887 344.004L196.602 340.262L209.275 308.578C202.226 304.195 196.005 296.856 190.197 287.895C181.406 274.331 173.695 255.916 168.475 233.605L122.6 199.2L133.4 184.802Z" class="" fill="#000000" fill-opacity="1"></path><path d="M46.945 194.598C44.79 194.668 42.849 195.438 41.029 196.525C41.037 219.967 41.126 249.308 42.973 273.311C43.38 278.611 43.92 283.395 44.533 287.807C51.613 262.656 59.91 237.864 69.393 213.517C67.088 206.119 62.477 200.781 57.369 197.717C53.731 195.534 50.185 194.493 46.945 194.597Z" class="" fill="#cea261" fill-opacity="1"></path><path d="M465.055 194.598C461.815 194.493 458.269 195.534 454.631 197.717C449.523 200.781 444.911 206.119 442.607 213.517C452.09 237.864 460.387 262.656 467.467 287.807C468.136 282.992 468.656 278.158 469.027 273.311C470.874 249.308 470.963 219.967 470.971 196.525C469.151 195.437 467.21 194.668 465.055 194.598Z" class="" fill="#cea261" fill-opacity="1"></path><path d="M191.985 250.057C195.973 261.357 200.595 270.841 205.303 278.105C209.139 284.024 213.062 288.147 216.369 290.845L226.207 266.254C216.671 262.404 205.671 256.907 191.984 250.057Z" class="" fill="#d0021b" fill-opacity="1"></path><path d="M320.015 250.057C306.329 256.907 295.329 262.405 285.793 266.254L295.631 290.846C298.938 288.147 302.861 284.024 306.697 278.106C311.406 270.841 316.027 261.356 320.016 250.056Z" class="" fill="#d0021b" fill-opacity="1"></path><path d="M138.34 269.313C150.456 269.325 164.25 272.661 179.773 279.83L172.227 296.17C152.635 287.122 138.377 285.942 128.295 288.488C118.212 291.034 111.475 297.204 106.611 305.943C96.883 323.423 97.926 351.725 104.051 363.975L87.949 372.025C78.074 352.275 77.446 321.332 90.883 297.189C97.601 285.118 108.656 274.883 123.887 271.037C127.694 270.076 131.711 269.506 135.939 269.354C136.739 269.326 137.539 269.312 138.339 269.313Z" class="selected" fill="#cea261" fill-opacity="1"></path><path d="M373.66 269.313C374.46 269.312 375.26 269.325 376.06 269.353C380.289 269.506 384.306 270.076 388.113 271.037C403.343 274.883 414.399 285.118 421.117 297.189C434.554 321.332 433.926 352.275 424.051 372.025L407.949 363.975C414.074 351.725 415.117 323.423 405.389 305.943C400.525 297.203 393.788 291.034 383.705 288.488C373.622 285.942 359.365 287.122 339.773 296.17L332.227 279.83C347.751 272.66 361.544 269.325 373.66 269.313Z" class="" fill="#cea261" fill-opacity="1"></path><path d="M243.424 271.668L219.502 331.473C222.288 332.753 225.285 334.134 229.049 335.656C238.529 339.49 250.413 343 256 343C261.587 343 273.471 339.49 282.951 335.656C286.715 334.134 289.712 332.754 292.498 331.473L268.576 271.668C264.359 272.532 260.226 273 256 273C251.774 273 247.64 272.532 243.424 271.668Z" class="" fill="#cea261" fill-opacity="1"></path><path d="M135.875 331.875L230.293 379.085C238.301 376.514 246.871 375 256 375C265.13 375 273.699 376.513 281.707 379.086L376.125 331.875L334.588 414.951C345.286 426.071 353.236 436.509 358.363 441.637L345.637 454.363C327.515 436.242 298 393 256 393C214 393 184.485 436.242 166.363 454.363L153.637 441.637C158.765 436.509 166.715 426.07 177.414 414.949L135.875 331.875Z" class="" fill="#000000" fill-opacity="1"></path><path d="M176.127 372.127L190.467 400.807L204.807 386.467L176.127 372.127Z" class="" fill="#fff" fill-opacity="1"></path><path d="M335.873 372.127L307.193 386.467L321.533 400.807L335.873 372.127Z" class="" fill="#fff" fill-opacity="1"></path></g></g></svg>