<svg xmlns="http://www.w3.org/2000/svg" viewBox="0 0 512 512" style="height: 512px; width: 512px;"><defs><linearGradient x1="0" x2="0" y1="0" y2="1" id="lorc-front-teeth-gradient-3"><stop offset="0%" stop-color="#ffffff" stop-opacity="1"></stop><stop offset="100%" stop-color="#a2c53a" stop-opacity="1"></stop></linearGradient><linearGradient x1="0" x2="0" y1="0" y2="1" id="lorc-front-teeth-gradient-4"><stop offset="0%" stop-color="#ffffff" stop-opacity="1"></stop><stop offset="100%" stop-color="#a2c53a" stop-opacity="1"></stop></linearGradient><linearGradient x1="0" x2="0" y1="0" y2="1" id="lorc-front-teeth-gradient-5"><stop offset="0%" stop-color="#ffffff" stop-opacity="1"></stop><stop offset="100%" stop-color="#a2c53a" stop-opacity="1"></stop></linearGradient><linearGradient x1="0" x2="0" y1="0" y2="1" id="lorc-front-teeth-gradient-6"><stop offset="0%" stop-color="#ffffff" stop-opacity="1"></stop><stop offset="100%" stop-color="#a2c53a" stop-opacity="1"></stop></linearGradient><linearGradient x1="0" x2="0" y1="0" y2="1" id="lorc-front-teeth-gradient-7"><stop offset="0%" stop-color="#ffffff" stop-opacity="1"></stop><stop offset="100%" stop-color="#a2c53a" stop-opacity="1"></stop></linearGradient><linearGradient x1="0" x2="0" y1="0" y2="1" id="lorc-front-teeth-gradient-8"><stop offset="0%" stop-color="#ffffff" stop-opacity="1"></stop><stop offset="100%" stop-color="#a2c53a" stop-opacity="1"></stop></linearGradient><linearGradient x1="0" x2="0" y1="0" y2="1" id="lorc-front-teeth-gradient-11"><stop offset="0%" stop-color="#a2c53a" stop-opacity="1"></stop><stop offset="100%" stop-color="#ffffff" stop-opacity="1"></stop></linearGradient><linearGradient x1="0" x2="0" y1="0" y2="1" id="lorc-front-teeth-gradient-12"><stop offset="0%" stop-color="#a2c53a" stop-opacity="1"></stop><stop offset="100%" stop-color="#ffffff" stop-opacity="1"></stop></linearGradient><linearGradient x1="0" x2="0" y1="0" y2="1" id="lorc-front-teeth-gradient-13"><stop offset="0%" stop-color="#a2c53a" stop-opacity="1"></stop><stop offset="100%" stop-color="#ffffff" stop-opacity="1"></stop></linearGradient><linearGradient x1="0" x2="0" y1="0" y2="1" id="lorc-front-teeth-gradient-14"><stop offset="0%" stop-color="#a2c53a" stop-opacity="1"></stop><stop offset="100%" stop-color="#ffffff" stop-opacity="1"></stop></linearGradient><linearGradient x1="0" x2="0" y1="0" y2="1" id="lorc-front-teeth-gradient-15"><stop offset="0%" stop-color="#a2c53a" stop-opacity="1"></stop><stop offset="100%" stop-color="#ffffff" stop-opacity="1"></stop></linearGradient><linearGradient x1="0" x2="0" y1="0" y2="1" id="lorc-front-teeth-gradient-16"><stop offset="0%" stop-color="#a2c53a" stop-opacity="1"></stop><stop offset="100%" stop-color="#ffffff" stop-opacity="1"></stop></linearGradient></defs><path d="M0 0h512v512H0z" fill="#000" fill-opacity="1"></path><g class="" transform="translate(0,0)" style=""><g><path d="M67.63 19.02C67.53 30.83 66.93 40.86 66.03 49.93C70.13 48.25 74.04 47.22 78.13 47.12C87.93 46.9 97.93 51.64 104.4 60.59C109.2 67.07 112.5 75.46 114.1 85.78C124 77.52 133.5 71.81 145 71.28C156.3 70.79 167.9 75.08 176.2 84.43C180.6 89.35 184 95.47 186.4 102.7C203.6 82.99 231.3 79.4 250.6 98.09C252.6 100.1 254.4 102.3 256.1 104.8C258.5 99.63 261.6 95.18 265.3 91.52C273.9 82.82 285.4 78.9 296.5 79.37C308.8 80.26 322.3 88.02 329.1 95.74C331.5 89.48 334.6 84.13 338.5 79.74C346.8 70.39 358.4 66.07 369.7 66.56C381 67.4 393.4 74.04 400.2 80.68C401.9 70.45 405.4 62.14 410.5 55.74C417.2 47.37 426.6 42.87 436.1 42.52C439.5 42.39 442.8 42.92 445.8 43.65C445.1 36.02 444.6 27.91 444.4 19.01C318.8 19.11 193.2 18.9 67.63 19.01Z" class="" fill="#ce8e8e" fill-opacity="1"></path><path d="M425.1 67.37C420.8 72.86 417 83.3 417.7 100.2C419 132.5 426.5 151.3 438.8 167.4C450.6 153.1 455.1 135.4 459.7 103.9C460.5 88.59 455 64.48 439.4 61.34C433.8 60.28 427.9 63.96 425.1 67.37Z" class="" fill="url(#lorc-front-teeth-gradient-3)"></path><path d="M77.13 65.93C68.23 67.46 55.95 80.94 59.13 108.4C61.72 130.7 63.04 154.7 75.43 171.7C87.63 155.7 95.13 137 96.43 104.8C97.13 87.82 93.53 77.17 89.43 71.71C85.81 67.16 82.19 65.29 77.13 65.93Z" class="" fill="url(#lorc-front-teeth-gradient-4)"></path><path d="M352.5 92.15C347.1 98.19 342.7 109.4 343.4 127.8C344.6 162.5 356.9 186.7 370.9 205.6C384.5 189 393.7 167.3 398.2 133.5C402.1 104 385.7 87.84 371.4 85.47C364.4 84.13 356.4 87.84 352.5 92.15Z" class="" fill="url(#lorc-front-teeth-gradient-5)"></path><path d="M143.3 90.21C128.9 92.59 112.5 108.7 116.4 138.2C120.9 172 130.1 193.7 143.8 210.3C157.8 191.4 170.1 167.2 171.4 132.4C172 114.1 167.6 102.9 162.2 96.87C156.4 91.32 150.5 89.02 143.3 90.21Z" class="" fill="url(#lorc-front-teeth-gradient-6)"></path><path d="M278.5 104.7C272.8 110.4 268.1 120.6 268.1 137.5C268 169.7 279.2 192 292.3 209.5C306.8 193.9 316.8 173.7 322.7 142C327.8 114.9 312.7 100.5 298.3 98.28C291.1 96.99 282.8 100.5 278.5 104.7Z" class="" fill="url(#lorc-front-teeth-gradient-7)"></path><path d="M217.6 104.8C203.1 107.1 188.1 121.4 193.1 148.5C199 180.2 209 200.5 223.5 216.1C236.7 198.6 247.9 176.3 247.8 144.1C247.7 127.2 243 116.9 237.3 111.3C231.1 105.8 224.9 104 217.6 104.8Z" class="" fill="url(#lorc-front-teeth-gradient-8)"></path><path d="M412.4 159.7C405.4 189.1 393.5 210.3 377 226.8L376.9 226.9C377.9 240 379.2 253.1 381 266.1C393.5 278.1 404.8 293.2 411.4 306.3C415.4 276.3 425.2 254.7 438.6 236.6C436.5 221.2 434.8 205.9 433.8 190.5C425.4 180.6 417.2 169.6 412.4 159.7Z" class="" fill="#ce8e8e" fill-opacity="1"></path><path d="M102.1 163.5C94 176.3 87.71 191.2 75.73 198.7C74.83 209.1 73.73 219.5 72.43 229.8C86.63 248.5 96.83 271 100.8 302.5C109.2 287.5 117.8 277.7 129 266.3C130.9 253.2 132.3 240 133.3 226.8C118.8 210.8 108.4 190.6 102.1 163.5Z" class="" fill="#ce8e8e" fill-opacity="1"></path><path d="M58.53 242.4C43.59 259.8 36.59 281.2 31.28 318.6L31.18 319.3C26.6 351.8 43.14 368.9 56.43 371.1C63.13 372.1 69.23 370.3 74.73 363.4C80.13 356.6 84.63 343.9 83.83 323.7C82.33 284.6 73.23 261.8 58.53 242.4Z" class="" fill="url(#lorc-front-teeth-gradient-11)"></path><path d="M453.5 247.8C438.8 267.2 429.7 289.9 428.2 329.1C427.4 349.2 431.9 361.9 437.3 368.8C442.8 375.6 448.9 377.5 455.5 376.4C468.9 374.3 485.4 357.2 480.8 324.6C475.5 286.8 468.5 265.2 453.5 247.8Z" class="" fill="url(#lorc-front-teeth-gradient-12)"></path><path d="M129 293.6C113.2 312.9 103.4 338.8 96.63 378.6C92.43 403.4 110.7 422 128.6 425.9C137.6 427.9 145.5 426.4 151.5 420.8C157.4 415.2 162.4 404.4 161.6 385C160 343.9 145.4 315.6 129 293.6Z" class="" fill="url(#lorc-front-teeth-gradient-13)"></path><path d="M381.3 293.6C364.9 315.6 350.4 344 348.8 385C348 404.7 352.9 415.6 358.9 421.1C364.8 426.7 372.6 428.1 381.6 426.1C399.4 421.9 417.8 403 413.6 378.6C406.8 338.8 397 312.9 381.3 293.6Z" class="" fill="url(#lorc-front-teeth-gradient-14)"></path><path d="M292.6 333.7C277.2 353.6 263.8 379 263.9 415.9C264 431.9 269 440.5 275.3 445.5C281.7 450.4 290.5 452 299.5 450.4C308.6 448.7 317.5 443.7 323.1 436.9C328.7 430 331.3 421.9 328.7 411.3C319.7 375 309.2 351.4 292.6 333.7Z" class="" fill="url(#lorc-front-teeth-gradient-15)"></path><path d="M215.2 336.1C198.3 353.8 187.3 377.2 179.2 413.5C176.4 425.8 179.3 434.4 184.7 440.9C190.1 447.4 198.7 451.7 207.7 452.8C216.8 453.8 225.9 451.7 232.4 446.4C239 441.1 243.8 432.7 243.9 418.3C244 381.4 230.6 356 215.2 336.1Z" class="selected" fill="url(#lorc-front-teeth-gradient-16)"></path><path d="M35.68 382.1C49.01 415.5 58.53 455.9 60.03 493L435.2 493C436.6 460.4 445.6 426.7 460.8 394.4C451.6 396.4 439.4 393.6 432.8 389.5C431 417.5 409.5 440.2 385.8 444.3C370 447 355 442.8 345.6 434.3C343.7 439.6 341 444.4 337.6 448.6C328.8 459.4 316.2 466.3 302.9 468.8C289.6 471.2 275.1 469 263.8 460.2C260.1 457.3 256.9 453.7 254.2 449.6C251.4 454 248 457.8 244.1 460.9C233 469.8 218.9 472.9 205.5 471.3C192.1 469.7 179.2 463.6 170.3 452.8C166.5 448.2 163.5 442.7 161.7 436.6C151 445.1 137.2 447 124.5 444.2C99.83 438.7 77.03 415.5 77.33 385.2C61.22 390.2 46.85 389.6 35.68 382.1Z" class="" fill="#ce8e8e" fill-opacity="1"></path></g></g></svg>